<svg fill="#000000" height="200px" width="200px" version="1.1" id="Layer_1" xmlns="http://www.w3.org/2000/svg" xmlns:xlink="http://www.w3.org/1999/xlink" viewBox="-143.36 -143.36 798.72 798.72" xml:space="preserve"><g id="SVGRepo_bgCarrier" stroke-width="0"><rect x="-143.36" y="-143.36" width="798.72" height="798.72" rx="399.36" fill="#38b6c7" strokewidth="0"></rect></g><g id="SVGRepo_tracerCarrier" stroke-linecap="round" stroke-linejoin="round"></g><g id="SVGRepo_iconCarrier"> <g> <g> <g> <path d="M222.123,76.8c0-4.71-3.814-8.533-8.533-8.533h-0.085c-4.71,0-8.491,3.823-8.491,8.533s3.866,8.533,8.576,8.533 C218.308,85.333,222.123,81.51,222.123,76.8z"></path> <path d="M187.733,153.6c-4.71,0-8.533,3.823-8.533,8.533c0,4.71,3.823,8.533,8.533,8.533c18.825,0,34.133-15.309,34.133-34.133 S206.558,102.4,187.733,102.4c-4.71,0-8.533,3.823-8.533,8.533s3.823,8.533,8.533,8.533c9.412,0,17.067,7.654,17.067,17.067 C204.8,145.946,197.146,153.6,187.733,153.6z"></path> <path d="M219.418,477.508c0.819,0.239,1.638,0.358,2.449,0.358c3.678,0,7.066-2.381,8.175-6.084 C231.1,468.25,256,383.684,256,247.467c0-4.71-3.823-8.533-8.533-8.533H102.4V204.8h110.933c4.71,0,8.533-3.823,8.533-8.533 s-3.823-8.533-8.533-8.533H93.867c-4.71,0-8.533,3.823-8.533,8.533v51.2c0,4.71,3.823,8.533,8.533,8.533h145.033 c-1.033,128.58-24.96,210.057-25.207,210.884C212.344,471.398,214.904,476.151,219.418,477.508z"></path> <path d="M452.523,17.067c4.719,0,8.533-3.823,8.533-8.533S457.242,0,452.523,0h-0.085c-4.71,0-8.491,3.823-8.491,8.533 S447.812,17.067,452.523,17.067z"></path> <path d="M247.467,221.867h153.6c4.71,0,8.533-3.823,8.533-8.533c0-4.71-3.823-8.533-8.533-8.533H256v-34.133h170.667v76.8 c0,136.218,24.9,220.783,25.958,224.316c1.109,3.703,4.497,6.084,8.175,6.084c0.811,0,1.63-0.119,2.449-0.358 c4.514-1.357,7.074-6.11,5.726-10.624c-0.256-0.845-25.242-85.914-25.242-219.418v-85.333c0-4.71-3.823-8.533-8.533-8.533 H247.467c-4.71,0-8.533,3.823-8.533,8.533v51.2C238.933,218.044,242.756,221.867,247.467,221.867z"></path> <path d="M281.6,136.533c23.526,0,42.667-19.14,42.667-42.667c0-4.71-3.823-8.533-8.533-8.533s-8.533,3.823-8.533,8.533 c0,14.114-11.486,25.6-25.6,25.6s-25.6-11.486-25.6-25.6c0-12.143,8.636-22.699,20.523-25.079 c2.475-0.503,4.599-2.065,5.803-4.267c1.22-2.21,1.391-4.838,0.478-7.194c-0.802-2.048-1.203-4.113-1.203-6.127 c0-9.412,7.654-17.067,17.067-17.067c5.99,0,11.443,3.132,14.575,8.371c1.621,2.705,4.608,4.241,7.765,4.139 c3.149-0.154,5.956-2.048,7.296-4.907c6.989-14.984,22.161-24.67,38.63-24.67c23.526,0,42.667,19.14,42.667,42.667 c0,1.374-0.085,2.731-0.205,4.07c-0.307,3.2,1.22,6.289,3.925,8.004c2.705,1.724,6.161,1.775,8.917,0.137 c4.113-2.44,8.474-3.678,12.962-3.678c14.114,0,25.6,11.486,25.6,25.6s-11.486,25.6-25.6,25.6c-4.71,0-8.533,3.823-8.533,8.533 s3.823,8.533,8.533,8.533c23.526,0,42.667-19.14,42.667-42.667c0-23.526-19.14-42.667-42.667-42.667 c-3.021,0-6.033,0.341-9.003,1.007C422.485,22.81,397.321,0,366.933,0c-18.918,0-36.608,9.114-47.761,23.953 c-5.803-4.42-12.928-6.886-20.506-6.886c-18.825,0-34.133,15.309-34.133,34.133c0,1.161,0.06,2.321,0.188,3.49 c-15.351,6.622-25.788,21.931-25.788,39.177C238.933,117.393,258.074,136.533,281.6,136.533z"></path> <path d="M395.75,91.196c-7.885,7.228-18.116,11.204-28.817,11.204c-4.71,0-8.533,3.823-8.533,8.533s3.823,8.533,8.533,8.533 c14.976,0,29.303-5.572,40.346-15.684c3.473-3.183,3.712-8.576,0.529-12.049C404.625,88.252,399.232,88.013,395.75,91.196z"></path> <path d="M93.867,170.667c4.71,0,8.533-3.823,8.533-8.533c0-4.71-3.823-8.533-8.533-8.533c-14.114,0-25.6-11.486-25.6-25.6 s11.486-25.6,25.583-25.6c0.299,0.009,0.572,0.06,0.853,0.102l1.468,0.171c2.927,0.282,5.751-0.964,7.535-3.277 c1.792-2.313,2.27-5.376,1.28-8.124c-1.715-4.727-2.586-9.6-2.586-14.473c0-23.526,19.14-42.667,42.667-42.667 c7.492,0,14.916,2.014,21.453,5.837c2.569,1.502,5.717,1.562,8.329,0.154c2.611-1.391,4.309-4.053,4.489-7.014 c0.546-8.994,7.979-16.043,16.93-16.043c9.412,0,17.067,7.654,17.067,17.067c0,4.71,3.823,8.533,8.533,8.533 c4.71,0,8.533-3.823,8.533-8.533C230.4,15.309,215.091,0,196.267,0c-13.875,0-25.941,8.414-31.206,20.54 c-6.409-2.287-13.175-3.473-19.994-3.473c-32.939,0-59.733,26.795-59.733,59.733c0,3.098,0.247,6.187,0.734,9.242 C66.253,89.719,51.2,107.136,51.2,128C51.2,151.526,70.34,170.667,93.867,170.667z"></path> <path d="M281.6,494.933H162.133c-4.71,0-8.533,3.823-8.533,8.533s3.823,8.533,8.533,8.533H281.6c4.71,0,8.533-3.823,8.533-8.533 S286.31,494.933,281.6,494.933z"></path> <path d="M332.8,494.933h-17.067c-4.71,0-8.533,3.823-8.533,8.533s3.823,8.533,8.533,8.533H332.8c4.71,0,8.533-3.823,8.533-8.533 S337.51,494.933,332.8,494.933z"></path> <path d="M503.467,494.933H366.933c-4.71,0-8.533,3.823-8.533,8.533s3.823,8.533,8.533,8.533h136.533 c4.71,0,8.533-3.823,8.533-8.533S508.177,494.933,503.467,494.933z"></path> <path d="M59.989,68.267c4.719,0,8.533-3.823,8.533-8.533S64.708,51.2,59.989,51.2h-0.085c-4.71,0-8.491,3.823-8.491,8.533 S55.279,68.267,59.989,68.267z"></path> <path d="M47.36,476.954c1.237,0.623,2.543,0.913,3.84,0.913c3.115,0,6.118-1.715,7.62-4.693 c1.784-3.524,43.58-87.62,43.58-191.573c0-4.71-3.823-8.533-8.533-8.533c-4.71,0-8.533,3.823-8.533,8.533 c0,99.746-41.335,183.066-41.754,183.893C41.464,469.7,43.153,474.837,47.36,476.954z"></path> <path d="M128,494.933H8.533c-4.71,0-8.533,3.823-8.533,8.533S3.823,512,8.533,512H128c4.71,0,8.533-3.823,8.533-8.533 S132.71,494.933,128,494.933z"></path> </g> </g> </g> </g></svg>